<mxfile host="app.diagrams.net" modified="2023-05-07T16:34:50.253Z" agent="Mozilla/5.0 (Windows NT 10.0; Win64; x64; rv:109.0) Gecko/20100101 Firefox/113.0" etag="KoxjDt1geicmHmMYr76w" version="21.2.9" type="github" pages="2">
  <diagram name="HOME" id="puaBKDKW8mH3MfKYI-cp">
    <mxGraphModel dx="1434" dy="795" grid="1" gridSize="10" guides="1" tooltips="1" connect="1" arrows="1" fold="1" page="1" pageScale="1" pageWidth="850" pageHeight="1100" math="0" shadow="0">
      <root>
        <mxCell id="0" />
        <mxCell id="1" parent="0" />
        <mxCell id="UzJmvUB2Acbs64gVOzDV-1" value="" style="rounded=0;whiteSpace=wrap;html=1;" parent="1" vertex="1">
          <mxGeometry x="40" y="40" width="760" height="600" as="geometry" />
        </mxCell>
        <mxCell id="UzJmvUB2Acbs64gVOzDV-2" value="" style="rounded=0;whiteSpace=wrap;html=1;" parent="1" vertex="1">
          <mxGeometry x="40" y="40" width="760" height="50" as="geometry" />
        </mxCell>
        <mxCell id="UzJmvUB2Acbs64gVOzDV-3" value="LOGO" style="rounded=0;whiteSpace=wrap;html=1;" parent="1" vertex="1">
          <mxGeometry x="40" y="40" width="50" height="50" as="geometry" />
        </mxCell>
        <mxCell id="UzJmvUB2Acbs64gVOzDV-5" value="&lt;div style=&quot;font-size: 19px;&quot; align=&quot;left&quot;&gt;&lt;font style=&quot;font-size: 19px;&quot;&gt;&lt;b style=&quot;font-size: 19px;&quot;&gt;&lt;font style=&quot;font-size: 19px;&quot;&gt;SIMPLIFIED CODING&lt;/font&gt;&lt;/b&gt;&lt;/font&gt;&lt;br style=&quot;font-size: 19px;&quot;&gt;&lt;/div&gt;" style="text;html=1;strokeColor=none;fillColor=none;align=left;verticalAlign=middle;whiteSpace=wrap;rounded=0;fontFamily=Helvetica;fontSize=19;" parent="1" vertex="1">
          <mxGeometry x="90" y="40" width="190" height="50" as="geometry" />
        </mxCell>
        <mxCell id="UzJmvUB2Acbs64gVOzDV-6" value="HOME" style="rounded=0;whiteSpace=wrap;html=1;" parent="1" vertex="1">
          <mxGeometry x="305" y="40" width="65" height="50" as="geometry" />
        </mxCell>
        <mxCell id="UzJmvUB2Acbs64gVOzDV-7" value="&lt;div&gt;LESSONS&lt;/div&gt;" style="rounded=0;whiteSpace=wrap;html=1;" parent="1" vertex="1">
          <mxGeometry x="370" y="40" width="80" height="50" as="geometry" />
        </mxCell>
        <mxCell id="UzJmvUB2Acbs64gVOzDV-9" value="" style="rounded=0;whiteSpace=wrap;html=1;" parent="1" vertex="1">
          <mxGeometry x="40" y="600" width="760" height="40" as="geometry" />
        </mxCell>
        <mxCell id="RbTPaeWHita-Hw-64lMJ-1" value="HTML" style="rounded=0;whiteSpace=wrap;html=1;" parent="1" vertex="1">
          <mxGeometry x="380" y="90" width="70" height="30" as="geometry" />
        </mxCell>
        <mxCell id="RbTPaeWHita-Hw-64lMJ-2" value="CSS" style="rounded=0;whiteSpace=wrap;html=1;" parent="1" vertex="1">
          <mxGeometry x="380" y="120" width="70" height="30" as="geometry" />
        </mxCell>
        <mxCell id="RbTPaeWHita-Hw-64lMJ-4" value="PYTHON" style="rounded=0;whiteSpace=wrap;html=1;" parent="1" vertex="1">
          <mxGeometry x="380" y="180" width="70" height="30" as="geometry" />
        </mxCell>
        <mxCell id="RbTPaeWHita-Hw-64lMJ-5" value="JS" style="rounded=0;whiteSpace=wrap;html=1;" parent="1" vertex="1">
          <mxGeometry x="380" y="150" width="70" height="30" as="geometry" />
        </mxCell>
        <mxCell id="RbTPaeWHita-Hw-64lMJ-6" value="NEWS" style="rounded=0;whiteSpace=wrap;html=1;" parent="1" vertex="1">
          <mxGeometry x="450" y="40" width="70" height="50" as="geometry" />
        </mxCell>
        <mxCell id="RbTPaeWHita-Hw-64lMJ-7" value="/lessons/html" style="text;html=1;strokeColor=none;fillColor=none;align=left;verticalAlign=middle;whiteSpace=wrap;rounded=0;" parent="1" vertex="1">
          <mxGeometry x="550" y="90" width="100" height="30" as="geometry" />
        </mxCell>
        <mxCell id="RbTPaeWHita-Hw-64lMJ-8" value="/lessons/css" style="text;html=1;strokeColor=none;fillColor=none;align=left;verticalAlign=middle;whiteSpace=wrap;rounded=0;" parent="1" vertex="1">
          <mxGeometry x="550" y="120" width="100" height="30" as="geometry" />
        </mxCell>
        <mxCell id="RbTPaeWHita-Hw-64lMJ-9" value="/lessons/js" style="text;html=1;strokeColor=none;fillColor=none;align=left;verticalAlign=middle;whiteSpace=wrap;rounded=0;" parent="1" vertex="1">
          <mxGeometry x="550" y="150" width="100" height="30" as="geometry" />
        </mxCell>
        <mxCell id="RbTPaeWHita-Hw-64lMJ-10" value="/lessons/python" style="text;html=1;strokeColor=none;fillColor=none;align=left;verticalAlign=middle;whiteSpace=wrap;rounded=0;" parent="1" vertex="1">
          <mxGeometry x="550" y="180" width="100" height="30" as="geometry" />
        </mxCell>
        <mxCell id="RbTPaeWHita-Hw-64lMJ-11" value="" style="endArrow=classic;html=1;rounded=0;exitX=1;exitY=0.5;exitDx=0;exitDy=0;entryX=0;entryY=0.5;entryDx=0;entryDy=0;" parent="1" source="RbTPaeWHita-Hw-64lMJ-1" target="RbTPaeWHita-Hw-64lMJ-7" edge="1">
          <mxGeometry width="50" height="50" relative="1" as="geometry">
            <mxPoint x="420" y="330" as="sourcePoint" />
            <mxPoint x="470" y="280" as="targetPoint" />
          </mxGeometry>
        </mxCell>
        <mxCell id="RbTPaeWHita-Hw-64lMJ-12" value="" style="endArrow=classic;html=1;rounded=0;exitX=1;exitY=0.5;exitDx=0;exitDy=0;entryX=0;entryY=0.5;entryDx=0;entryDy=0;" parent="1" edge="1">
          <mxGeometry width="50" height="50" relative="1" as="geometry">
            <mxPoint x="450" y="134.5" as="sourcePoint" />
            <mxPoint x="550" y="134.5" as="targetPoint" />
          </mxGeometry>
        </mxCell>
        <mxCell id="RbTPaeWHita-Hw-64lMJ-13" value="" style="endArrow=classic;html=1;rounded=0;exitX=1;exitY=0.5;exitDx=0;exitDy=0;entryX=0;entryY=0.5;entryDx=0;entryDy=0;" parent="1" edge="1">
          <mxGeometry width="50" height="50" relative="1" as="geometry">
            <mxPoint x="450" y="164.5" as="sourcePoint" />
            <mxPoint x="550" y="164.5" as="targetPoint" />
          </mxGeometry>
        </mxCell>
        <mxCell id="RbTPaeWHita-Hw-64lMJ-14" value="" style="endArrow=classic;html=1;rounded=0;exitX=1;exitY=0.5;exitDx=0;exitDy=0;entryX=0;entryY=0.5;entryDx=0;entryDy=0;" parent="1" edge="1">
          <mxGeometry width="50" height="50" relative="1" as="geometry">
            <mxPoint x="450" y="194.5" as="sourcePoint" />
            <mxPoint x="550" y="194.5" as="targetPoint" />
          </mxGeometry>
        </mxCell>
        <mxCell id="RbTPaeWHita-Hw-64lMJ-30" value="HC BANK ICON" style="rounded=0;whiteSpace=wrap;html=1;" parent="1" vertex="1">
          <mxGeometry x="40" y="600" width="60" height="40" as="geometry" />
        </mxCell>
        <mxCell id="RbTPaeWHita-Hw-64lMJ-38" value="FISCALLY SPONSORED" style="rounded=0;whiteSpace=wrap;html=1;" parent="1" vertex="1">
          <mxGeometry x="100" y="600" width="700" height="40" as="geometry" />
        </mxCell>
        <mxCell id="RbTPaeWHita-Hw-64lMJ-39" value="" style="rounded=1;whiteSpace=wrap;html=1;" parent="1" vertex="1">
          <mxGeometry x="70" y="110" width="300" height="460" as="geometry" />
        </mxCell>
        <mxCell id="RbTPaeWHita-Hw-64lMJ-40" value="" style="rounded=1;whiteSpace=wrap;html=1;" parent="1" vertex="1">
          <mxGeometry x="70" y="110" width="300" height="140" as="geometry" />
        </mxCell>
        <mxCell id="RbTPaeWHita-Hw-64lMJ-41" value="" style="rounded=1;whiteSpace=wrap;html=1;" parent="1" vertex="1">
          <mxGeometry x="70" y="210" width="300" height="140" as="geometry" />
        </mxCell>
        <mxCell id="RbTPaeWHita-Hw-64lMJ-42" value="" style="rounded=1;whiteSpace=wrap;html=1;" parent="1" vertex="1">
          <mxGeometry x="70" y="320" width="300" height="140" as="geometry" />
        </mxCell>
        <mxCell id="RbTPaeWHita-Hw-64lMJ-43" value="" style="rounded=1;whiteSpace=wrap;html=1;" parent="1" vertex="1">
          <mxGeometry x="70" y="430" width="300" height="140" as="geometry" />
        </mxCell>
        <mxCell id="RbTPaeWHita-Hw-64lMJ-44" value="&lt;h1&gt;HTML&lt;/h1&gt;&lt;p&gt;HTML LESSON BLAH&lt;br&gt;&lt;/p&gt;" style="text;html=1;strokeColor=none;fillColor=none;spacing=5;spacingTop=-20;whiteSpace=wrap;overflow=hidden;rounded=0;" parent="1" vertex="1">
          <mxGeometry x="140" y="120" width="220" height="80" as="geometry" />
        </mxCell>
        <mxCell id="RbTPaeWHita-Hw-64lMJ-45" value="&lt;h1&gt;CSS&lt;/h1&gt;&lt;p&gt;CSS LESSON BLAH&lt;br&gt;&lt;/p&gt;" style="text;html=1;strokeColor=none;fillColor=none;spacing=5;spacingTop=-20;whiteSpace=wrap;overflow=hidden;rounded=0;" parent="1" vertex="1">
          <mxGeometry x="140" y="220" width="220" height="80" as="geometry" />
        </mxCell>
        <mxCell id="RbTPaeWHita-Hw-64lMJ-46" value="&lt;h1&gt;JS&lt;/h1&gt;&lt;p&gt;JS LESSON BLAH&lt;br&gt;&lt;/p&gt;" style="text;html=1;strokeColor=none;fillColor=none;spacing=5;spacingTop=-20;whiteSpace=wrap;overflow=hidden;rounded=0;" parent="1" vertex="1">
          <mxGeometry x="140" y="330" width="220" height="80" as="geometry" />
        </mxCell>
        <mxCell id="RbTPaeWHita-Hw-64lMJ-47" value="&lt;h1&gt;PYTHON&lt;br&gt;&lt;/h1&gt;&lt;p&gt;PYTHON LESSON BLAH&lt;br&gt;&lt;/p&gt;" style="text;html=1;strokeColor=none;fillColor=none;spacing=5;spacingTop=-20;whiteSpace=wrap;overflow=hidden;rounded=0;" parent="1" vertex="1">
          <mxGeometry x="140" y="440" width="220" height="80" as="geometry" />
        </mxCell>
        <mxCell id="RbTPaeWHita-Hw-64lMJ-48" value="LEARN" style="rounded=1;whiteSpace=wrap;html=1;" parent="1" vertex="1">
          <mxGeometry x="290" y="120" width="70" height="80" as="geometry" />
        </mxCell>
        <mxCell id="RbTPaeWHita-Hw-64lMJ-49" value="LEARN" style="rounded=1;whiteSpace=wrap;html=1;" parent="1" vertex="1">
          <mxGeometry x="290" y="220" width="70" height="90" as="geometry" />
        </mxCell>
        <mxCell id="RbTPaeWHita-Hw-64lMJ-50" value="LEARN" style="rounded=1;whiteSpace=wrap;html=1;" parent="1" vertex="1">
          <mxGeometry x="290" y="330" width="70" height="90" as="geometry" />
        </mxCell>
        <mxCell id="RbTPaeWHita-Hw-64lMJ-51" value="LEARN" style="rounded=1;whiteSpace=wrap;html=1;" parent="1" vertex="1">
          <mxGeometry x="290" y="450" width="70" height="110" as="geometry" />
        </mxCell>
        <mxCell id="RbTPaeWHita-Hw-64lMJ-52" value="ICON" style="ellipse;whiteSpace=wrap;html=1;aspect=fixed;" parent="1" vertex="1">
          <mxGeometry x="80" y="135" width="50" height="50" as="geometry" />
        </mxCell>
        <mxCell id="RbTPaeWHita-Hw-64lMJ-53" value="ICON" style="ellipse;whiteSpace=wrap;html=1;aspect=fixed;" parent="1" vertex="1">
          <mxGeometry x="80" y="235" width="50" height="50" as="geometry" />
        </mxCell>
        <mxCell id="RbTPaeWHita-Hw-64lMJ-54" value="ICON" style="ellipse;whiteSpace=wrap;html=1;aspect=fixed;" parent="1" vertex="1">
          <mxGeometry x="80" y="345" width="50" height="50" as="geometry" />
        </mxCell>
        <mxCell id="RbTPaeWHita-Hw-64lMJ-55" value="ICON" style="ellipse;whiteSpace=wrap;html=1;aspect=fixed;" parent="1" vertex="1">
          <mxGeometry x="80" y="480" width="50" height="50" as="geometry" />
        </mxCell>
      </root>
    </mxGraphModel>
  </diagram>
  <diagram id="CDVTniauSEpIivDFvnVo" name="Page-2">
    <mxGraphModel dx="2868" dy="1590" grid="1" gridSize="10" guides="1" tooltips="1" connect="1" arrows="1" fold="1" page="1" pageScale="1" pageWidth="850" pageHeight="1100" math="0" shadow="0">
      <root>
        <mxCell id="0" />
        <mxCell id="1" parent="0" />
      </root>
    </mxGraphModel>
  </diagram>
</mxfile>
